<svg xmlns="http://www.w3.org/2000/svg" viewBox="0 0 128 128" width="75px" height="100px" fill="#fff"><title>firepit</title><g><path d="M104.0039,89.35H85.8394c15.5387-14.0155,9.7236-32.5485,6.3618-40.0908a2.0015,2.0015,0,0,0-3.72.1875c-1.1816,3.3345-4.3974,6.4668-6.8867,8.5078a1,1,0,0,1-1.6142-.9566,32.6887,32.6887,0,0,0-2.6231-19.8095,1.9972,1.9972,0,0,0-3.7265.4038C71.4956,46.4862,58.5615,50.7815,62.1,26.1714a2.0011,2.0011,0,0,0-3.4062-1.6939C53.3076,29.8989,45.1191,44.293,48.59,63.8535a.998.998,0,0,1-1.3085,1.1319C42.584,63.19,38.4336,57.6992,36.3789,54.5869a2.005,2.005,0,0,0-3.6435.7886C29.9468,72.2166,34.9558,81.45,39.8073,89.35H24.0039c-7.5061.0013-16.0255,5.0463-16.9893,16.1211-.1162,1.3371.5888,3.0962,2.1182,3.0962H118.8672c1.5209,0,2.2371-1.7279,2.1182-3.0957C120.0225,94.3955,111.5078,89.35,104.0039,89.35ZM87.9426,100.92H83.3564a1,1,0,0,0,0,2h4.0514c-.5655,2.6868-.39,3.2836-.3109,3.6475H80.9032c.3315-1.5276-.4366-5.5318-2.09-8.5742H82.6a1,1,0,0,0,0-2H77.5251A16.23,16.23,0,0,0,72.059,91.35H95.9445A16.2954,16.2954,0,0,0,87.9426,100.92Zm-30.7168,5.6475H49.2246a1.2812,1.2812,0,0,1-.2178-.9229c1.6622-19.0995,28.3294-19.06,29.9864.0005a1.2805,1.2805,0,0,1-.2178.9224H70.7743A6.7945,6.7945,0,0,0,57.2258,106.5674Zm11.5225,0H59.2438A4.7769,4.7769,0,0,1,68.7483,106.5674ZM40.5923,102.92h6.8155c-.5655,2.6868-.39,3.2836-.3109,3.6475H40.9032C40.9822,106.2032,41.1575,105.6064,40.5923,102.92ZM57.9179,89.35c-2.1879-3.73-2.4822-8.6458-1.079-16.748,2.6289,5.5745,8.3034,11.4121,10.8222-6.6578,8.0144,14.5818,6.7072,20.1006,4.1211,23.4058ZM34.71,55.689c2.1875,3.313,6.6377,9.1689,11.8564,11.1645a2.995,2.995,0,0,0,3.9922-3.3491c-3.3272-18.7539,4.4394-32.47,9.5605-37.6172-3.9425,27.4306,12.7846,23.31,15.4483,12.1934a30.6731,30.6731,0,0,1,2.4385,18.5981,3.0005,3.0005,0,0,0,4.8564,2.8223c2.6865-2.2017,6.168-5.6172,7.5127-9.4273C93.672,57.4725,99.4866,76.05,82.7505,89.35H74.1711c3.1108-5.2919,1.6262-12.754-4.758-24.3691a1.9651,1.9651,0,0,0-3.668.6557c-2.0692,14.2482-4.6446,11.3118-7.0976,6.1123a1.968,1.968,0,0,0-3.712.4956c-1.4362,7.94-1.2442,13.0805.7121,17.1055h-13.49C37.077,81.1394,31.9163,72.5647,34.71,55.689ZM55.9445,91.35a16.2359,16.2359,0,0,0-5.4681,4.6431H41.3916a1,1,0,0,0,0,2h7.7957a17.4466,17.4466,0,0,0-1.2447,2.9267H40.0578a16.2931,16.2931,0,0,0-7.9988-9.57ZM19.2438,106.5674a4.7769,4.7769,0,0,1,9.5045,0Zm11.5305,0a6.7945,6.7945,0,0,0-13.5485,0H9.2178a1.3449,1.3449,0,0,1-.211-.9224v-.0005C9.8662,95.77,17.1582,91.35,24.0039,91.35c6.8428,0,14.1309,4.42,14.9893,14.2949a1.3449,1.3449,0,0,1-.211.9224Zm68.47,0a4.7775,4.7775,0,0,1,9.5045,0Zm19.5384,0h-8.0079a6.7945,6.7945,0,0,0-13.5485,0h-8.008a1.3449,1.3449,0,0,1-.211-.9224v-.0005C89.8662,95.77,97.1582,91.35,104.0039,91.35c6.8428,0,14.1309,4.42,14.9893,14.2949A1.3449,1.3449,0,0,1,118.7822,106.5674Z"/><path d="M41.3721,47.8076c5.2447-5.8811,1.1239-10.6734.457-17.1333-.2677-2.5759-2.6271-2.2926-3.7441-.9853-5.4917,6.4166-2.4864,12.573-.4668,17.5283C38.3048,48.9064,39.9559,49.3949,41.3721,47.8076ZM39.6045,30.9893a1.0752,1.0752,0,0,1,.2246-.1905c1.268,8.0838,4.1481,11.0825.0508,15.6773a1.4421,1.4421,0,0,1-.2793.248,3.2486,3.2486,0,0,1-.2354-.52C37.0635,40.5493,35.2451,36.083,39.6045,30.9893Z"/><path d="M85.6719,33.5981h.001l.0839-.208c1.918-4.7114,3.7286-9.1616-.4931-14.0942-1.0271-1.2054-3.1229-1.3367-3.3555.8994-.5383,5.2017-3.8884,9.1065.416,13.9336A1.8533,1.8533,0,0,0,85.6719,33.5981ZM83.86,20.7334c3.2822,3.9473,1.9209,7.293.0439,11.9023l-.0723.1788-.0146-.0162C80.4235,28.9915,83.2013,26.0424,83.86,20.7334Z"/></g></svg>