<svg xmlns="http://www.w3.org/2000/svg" xmlns:xlink="http://www.w3.org/1999/xlink" version="1.1" x="0px" y="0px" viewBox="0 0 64 80" style="enable-background:new 0 0 64 64;"  width="75px" height="100px" fill="#fff" xml:space="preserve"><g><rect x="27" y="10.007" width="2" height="2"/><path d="M36.228,21.595c0.853,0.242,1.664,0.547,2.411,0.921c0.39-1.065,0.358-2.24-0.103-3.283   C37.49,19.683,36.669,20.543,36.228,21.595z"/><path d="M25.361,22.516c0.748-0.374,1.558-0.679,2.411-0.921c-0.441-1.051-1.262-1.911-2.308-2.362   C25.003,20.277,24.971,21.452,25.361,22.516z"/><path d="M24.168,17.453l0.424-0.635l1.158,0.385c1.055,0.352,1.983,0.981,2.715,1.789c0.553-1.537,1.579-2.883,2.98-3.817   L32,14.805l0.555,0.37c1.401,0.934,2.427,2.28,2.98,3.817c0.732-0.808,1.66-1.437,2.714-1.788l1.159-0.386l0.424,0.635   c0.708,1.063,1.064,2.279,1.075,3.497c0.35-0.19,0.716-0.347,1.093-0.482v-1.46c0-2.757-2.243-5-5-5H27c-2.757,0-5,2.243-5,5v1.46   c0.376,0.134,0.743,0.291,1.093,0.482C23.104,19.731,23.459,18.515,24.168,17.453z"/><path d="M33.974,21.14c-0.124-1.508-0.83-2.9-1.974-3.881c-1.145,0.98-1.85,2.372-1.974,3.881c0.644-0.08,1.3-0.133,1.974-0.133   S33.33,21.059,33.974,21.14z"/><path d="M32,25.109c0.819-0.837,1.83-1.451,2.939-1.792c-0.93-0.201-1.917-0.31-2.939-0.31s-2.009,0.109-2.939,0.31   C30.17,23.658,31.181,24.272,32,25.109z"/><path d="M40.519,43.366l1.495,1.993c0.568-0.548,1.004-1.073,1.324-1.519l-2.403-0.801C40.8,43.151,40.661,43.259,40.519,43.366z"/><rect x="31" y="10.007" width="2" height="2"/><path d="M42.288,25.399c0.1-0.083,0.202-0.163,0.304-0.243c0.756-0.871,1.243-1.951,1.373-3.113   c-1.302,0.146-2.503,0.735-3.42,1.656C41.214,24.209,41.795,24.782,42.288,25.399z"/><path d="M43.747,28.171c0.006,0.021,0.011,0.042,0.016,0.063c0.064,0.245,0.115,0.494,0.153,0.748   c0.009,0.056,0.019,0.112,0.026,0.169C43.977,29.433,44,29.717,44,30.007c0,0.124-0.027,0.246-0.034,0.37   c1.523-0.885,3.271-1.37,5.034-1.37v2c-1.719,0-3.424,0.568-4.801,1.6l-0.589,0.442c2.681,0.2,5.176,1.331,7.096,3.251   l-1.414,1.414c-1.525-1.525-3.489-2.451-5.607-2.661C43.877,35.694,44,36.347,44,37.007c0,1.602-0.55,3.117-1.536,4.434   l6.069,2.023c0.847,0.282,1.631,0.692,2.341,1.196C52.25,43.005,53,40.944,53,38.765v-0.497c0-0.756-0.093-1.51-0.275-2.242   l-0.362-1.445C52.122,33.619,52,32.628,52,31.636c0-1.874,0.443-3.751,1.281-5.428l0.497-0.994c-1.116-0.98-2.689-1.406-4.15-1.113   l-0.271,0.055c-1.957,0.391-3.774,1.221-5.341,2.419c-0.192,0.214-0.401,0.414-0.617,0.606   C43.54,27.499,43.655,27.831,43.747,28.171z"/><path d="M21.712,25.399c0.493-0.617,1.074-1.19,1.743-1.7c-0.916-0.921-2.117-1.51-3.42-1.656c0.13,1.162,0.616,2.242,1.373,3.113   C21.509,25.236,21.612,25.315,21.712,25.399z"/><polygon points="34,8.007 35,6.007 32,3.007 29,6.007 30,8.007  "/><rect x="35" y="10.007" width="2" height="2"/><path d="M26.704,45.089c-0.533-0.195-1.041-0.414-1.521-0.66l-1.648,2.198c0.74,0.505,1.61,0.981,2.633,1.373   C26.401,47.039,26.569,46.067,26.704,45.089z"/><path d="M36.673,48.383l-0.558-1.395c-0.155,0.559-0.343,1.111-0.539,1.66C35.955,48.57,36.324,48.484,36.673,48.383z"/><path d="M37.481,45.017l1.07,2.674c0.715-0.325,1.353-0.686,1.912-1.068l-1.646-2.194C38.393,44.646,37.946,44.84,37.481,45.017z"/><path d="M34.568,59.41l-1.074-0.537C31.956,58.103,31,56.557,31,54.836c0-0.697,0.165-1.396,0.477-2.019l1.201-2.402   c0.271-0.54,0.522-1.102,0.75-1.668C34.471,46.137,35,43.388,35,40.579v-2.571h2v2.571c0,0.852-0.055,1.696-0.144,2.535   C39.974,41.883,42,39.531,42,37.007c0-0.581-0.107-1.161-0.318-1.724c-0.429-1.146-0.429-2.407,0-3.552   C41.893,31.168,42,30.588,42,30.007c0-0.304-0.038-0.599-0.09-0.889c-0.016-0.09-0.037-0.178-0.058-0.267   c-0.054-0.227-0.122-0.449-0.206-0.663c-0.021-0.055-0.038-0.112-0.061-0.166c-0.77-1.771-2.533-3.015-4.584-3.015   c-1.679,0-3.236,0.837-4.167,2.238L32,28.5l-0.833-1.255c-0.931-1.401-2.488-2.238-4.167-2.238c-2.051,0-3.814,1.244-4.584,3.015   c-0.023,0.055-0.04,0.111-0.061,0.166c-0.084,0.214-0.152,0.436-0.206,0.663c-0.021,0.089-0.042,0.177-0.058,0.267   c-0.052,0.29-0.09,0.585-0.09,0.889c0,0.581,0.107,1.161,0.318,1.724c0.429,1.146,0.429,2.407,0,3.552   C22.107,35.846,22,36.426,22,37.007c0,2.464,1.928,4.768,4.921,6.021C26.965,42.374,27,41.718,27,41.059v-3.052h2v2h2v2h-2.038   c-0.02,0.669-0.052,1.336-0.114,2H31v2h-2.394c-0.107,0.671-0.25,1.336-0.4,2H31v2h-3.324c-0.1,0.336-0.181,0.677-0.292,1.011   c-0.108,0.324-0.181,0.656-0.244,0.989H30v2h-2.947c0.265,3.169,2.484,5.853,5.615,6.637l1.362,0.341   c0.457,0.112,0.97-0.264,0.97-0.759v-0.118C35,59.81,34.835,59.542,34.568,59.41z M37,31.007c0.552,0,1,0.448,1,1   c0,0.552-0.448,1-1,1s-1-0.448-1-1C36,31.455,36.448,31.007,37,31.007z M33,28.007h2v2h-2V28.007z M27,33.007c-0.552,0-1-0.448-1-1   c0-0.552,0.448-1,1-1s1,0.448,1,1C28,32.56,27.552,33.007,27,33.007z M29,30.007v-2h2v2H29z"/><path d="M12,31.636c0,0.992-0.122,1.982-0.362,2.943l-0.362,1.447C11.093,36.758,11,37.512,11,38.268v0.497   c0,2.179,0.75,4.24,2.126,5.895c0.71-0.504,1.494-0.913,2.341-1.196l6.069-2.023C20.55,40.124,20,38.609,20,37.007   c0-0.66,0.123-1.313,0.314-1.954c-2.118,0.21-4.082,1.135-5.607,2.661L13.293,36.3c1.92-1.92,4.415-3.051,7.096-3.251L19.8,32.607   c-1.376-1.031-3.081-1.6-4.8-1.6v-2c1.763,0,3.511,0.485,5.034,1.37C20.027,30.254,20,30.131,20,30.007   c0-0.29,0.023-0.575,0.058-0.856c0.007-0.057,0.017-0.113,0.026-0.17c0.038-0.254,0.088-0.503,0.152-0.747   c0.006-0.021,0.011-0.042,0.016-0.064c0.093-0.341,0.208-0.672,0.349-0.99c-0.217-0.192-0.425-0.393-0.617-0.606   c-1.567-1.198-3.383-2.028-5.34-2.419l-0.273-0.055c-1.454-0.294-3.032,0.133-4.148,1.113l0.497,0.994   C11.557,27.885,12,29.762,12,31.636z"/><path d="M53.867,61.007l-1.234-9.873c-0.332-2.659-2.189-4.925-4.732-5.773l-2.588-0.863c-1.187,1.859-4.288,5.482-10.625,6.321   c-0.076,0.162-0.141,0.332-0.22,0.49l-1.201,2.403C33.092,54.06,33,54.449,33,54.836c0,0.958,0.532,1.819,1.389,2.247l1.074,0.537   C36.411,58.095,37,59.047,37,60.108v0.118c0,0.273-0.052,0.532-0.126,0.781H40c2.757,0,5-2.243,5-5   c0-1.232-0.452-2.416-1.273-3.333l1.49-1.334C46.367,52.625,47,54.283,47,56.007c0,1.958-0.81,3.728-2.111,5H53.867z M42,58.007h-2   v-2h2V58.007z"/><path d="M21.979,45.369l1.502-2.003c-0.142-0.107-0.281-0.215-0.416-0.327l-2.409,0.803C20.976,44.29,21.408,44.819,21.979,45.369z   "/><path d="M25,53.384c0-1.021,0.164-2.029,0.487-2.999c0.05-0.15,0.084-0.304,0.131-0.454c-3.909-1.447-5.999-3.983-6.928-5.434   L16.1,45.361c-2.543,0.849-4.4,3.114-4.732,5.773l-1.234,9.873h8.978c-1.3-1.272-2.111-3.042-2.111-5   c0-1.725,0.633-3.382,1.783-4.667l1.49,1.334C19.452,53.591,19,54.775,19,56.007c0,2.757,2.243,5,5,5h4.85   C26.485,59.262,25,56.47,25,53.384z M24,58.007h-2v-2h2V58.007z"/></g></svg>