<svg xmlns="http://www.w3.org/2000/svg" xmlns:xlink="http://www.w3.org/1999/xlink" version="1.1" x="0px" y="0px" viewBox="0 0 100 125" enable-background="new 0 0 100 100" xml:space="preserve" width="100px" height="100px" fill="#fff"><g><path d="M71.591,53.013c-6.07-4.29-6.243-8.923-6.013-10.801h4.75l-2.86-8.312h-4.438c1.753-1.462,3.46-2.095,5.104-1.852   c4.465,0.653,7.41,7.28,7.439,7.347l2.396,5.48v-5.98c0-6.736-1.81-11.406-5.377-13.88c-3.424-2.373-7.543-2.07-9.995-1.575   c1.221-3.569,5.51-6.913,5.556-6.949l2.154-1.662l-2.663-0.552c-3.501-0.725-6.671-0.068-9.251,0.998   c-1.149-2.631-4.363-8.567-9.979-8.567c-5.552,0-9.171,5.962-10.48,8.549c-2.573-1.056-5.728-1.702-9.209-0.98l-2.662,0.553   l2.152,1.662c0.046,0.036,4.335,3.379,5.555,6.948c-2.452-0.495-6.571-0.798-9.993,1.576c-3.568,2.474-5.377,7.144-5.377,13.88   v6.013l2.396-5.515c0.807-1.857,3.715-6.797,7.433-7.345c1.641-0.238,3.35,0.391,5.106,1.851h-4.436l-2.86,8.312h4.75   c0.23,1.884,0.054,6.514-6.012,10.801c-5.288,3.734-8.42,11.451-7.618,18.766c0.831,7.578,5.677,13.688,13.679,17.282v5.231H65.53   v-5.231c8.001-3.594,12.847-9.703,13.678-17.281C80.01,64.465,76.878,56.748,71.591,53.013z M71.179,27.078   c1.926,1.341,3.21,3.595,3.839,6.728c-1.577-1.932-3.775-3.827-6.514-4.23c-3.049-0.452-6.08,1.02-9.03,4.324h-0.11   c0.51-0.86,0.921-1.741,1.257-2.648l0.002,0.001c0.216-0.444,1.91-1.315,3.485-1.792l-0.723-2.394   c-0.358,0.108-1.017,0.323-1.746,0.636c0.115-0.505,0.228-1.02,0.337-1.542C63.582,25.711,67.925,24.813,71.179,27.078z    M59.943,23.663l-0.262,1.253c-0.735,3.561-1.342,6.411-3.341,8.983h-1.453c1.378-1.982,2.021-4.137,1.894-6.438   c-0.022-0.407-0.073-0.809-0.141-1.207l0.045,0.013c0.495-1.764,2.455-3.451,3.169-3.952l-0.717-1.024l-0.715-1.025   c-0.092,0.064-1.592,1.125-2.805,2.74c-0.37-0.82-0.803-1.602-1.275-2.335c1.577-1.334,5.392-4.091,10.088-4.192   C62.72,18.193,60.543,20.839,59.943,23.663z M46.93,23.791V33.9h-1.437c-0.736-0.618-2.684-2.525-2.937-5.583   c-0.28-3.386,1.557-7.125,5.464-11.125c1.819,1.609,6.012,5.798,6.265,10.407c0.126,2.297-0.748,4.362-2.642,6.301H49.43V23.791   H46.93z M48.413,9.208c4.182,0,6.806,5.042,7.728,7.165c-1.405,0.797-2.519,1.631-3.273,2.265c-1.98-2.438-4-4.007-4.16-4.13   l-0.854-0.652l-0.773,0.746c-1.407,1.358-2.597,2.703-3.584,4.033c-0.764-0.641-1.893-1.486-3.32-2.291   C41.522,13.688,44.592,9.208,48.413,9.208z M42.099,20.736c-0.392,0.672-0.727,1.339-1.007,2.002   c-1.169-1.463-2.507-2.412-2.594-2.472l-1.431,2.05c0.68,0.475,2.481,2.029,3.078,3.717c-0.122,0.84-0.149,1.671-0.081,2.491   c0.191,2.308,1.109,4.102,2.048,5.376h-2.089c-1.998-2.572-2.605-5.421-3.341-8.982l-0.262-1.255   c-0.599-2.824-2.775-5.47-4.485-7.184C36.712,16.582,40.573,19.43,42.099,20.736z M27.862,29.576   c-2.738,0.404-4.936,2.298-6.512,4.229c0.629-3.132,1.913-5.386,3.839-6.728c3.252-2.263,7.594-1.366,9.201-0.917   c0.093,0.448,0.19,0.89,0.288,1.324c-1.047-0.37-1.925-0.459-2.001-0.466l-0.227,2.49c0.728,0.07,2.74,0.526,3.311,1.778   c0.333,0.895,0.74,1.764,1.243,2.613h-0.109C33.941,30.595,30.908,29.124,27.862,29.576z M30.681,36.4h35.004l1.14,3.312H29.541   L30.681,36.4z M26.218,55.054c2.104-1.486,3.601-3.029,4.667-4.53h27.072v-2.5H32.308c1.032-2.362,1.115-4.45,0.992-5.812h29.768   c-0.124,1.362-0.041,3.45,0.991,5.812h-4.654v2.5h6.077c1.064,1.5,2.563,3.043,4.666,4.53c1.313,0.928,2.579,2.301,3.653,3.982   H22.564C23.64,57.354,24.905,55.981,26.218,55.054z M33.336,91.792V89.49H63.03v2.302H33.336z M76.723,71.507   c-0.197,1.802-0.666,3.508-1.375,5.107H32.564v2.5h41.408c-2.179,3.294-5.551,5.989-9.959,7.876H32.354   c-4.408-1.887-7.781-4.582-9.96-7.876h7.813v-2.5h-9.188c-0.71-1.6-1.178-3.307-1.375-5.108c-0.398-3.627,0.296-7.083,1.576-9.97   h53.929C76.427,64.424,77.12,67.88,76.723,71.507z"/><path d="M28.413,62.726c-2.199,0-3.988,1.789-3.988,3.988v5.398c0,2.199,1.789,3.988,3.988,3.988s3.989-1.789,3.989-3.988v-5.398   C32.401,64.515,30.612,62.726,28.413,62.726z M29.901,72.112c0,0.82-0.668,1.488-1.489,1.488s-1.488-0.668-1.488-1.488v-5.398   c0-0.82,0.667-1.488,1.488-1.488s1.489,0.668,1.489,1.488V72.112z"/><path d="M38.413,62.726c-2.199,0-3.988,1.789-3.988,3.988v5.398c0,2.199,1.789,3.988,3.988,3.988s3.989-1.789,3.989-3.988v-5.398   C42.401,64.515,40.612,62.726,38.413,62.726z M39.901,72.112c0,0.82-0.668,1.488-1.489,1.488s-1.488-0.668-1.488-1.488v-5.398   c0-0.82,0.667-1.488,1.488-1.488s1.489,0.668,1.489,1.488V72.112z"/><path d="M48.413,62.726c-2.199,0-3.988,1.789-3.988,3.988v5.398c0,2.199,1.789,3.988,3.988,3.988s3.989-1.789,3.989-3.988v-5.398   C52.401,64.515,50.612,62.726,48.413,62.726z M49.901,72.112c0,0.82-0.668,1.488-1.489,1.488s-1.488-0.668-1.488-1.488v-5.398   c0-0.82,0.667-1.488,1.488-1.488s1.489,0.668,1.489,1.488V72.112z"/><path d="M58.413,62.726c-2.199,0-3.988,1.789-3.988,3.988v5.398c0,2.199,1.789,3.988,3.988,3.988s3.988-1.789,3.988-3.988v-5.398   C62.401,64.515,60.612,62.726,58.413,62.726z M59.901,72.112c0,0.82-0.668,1.488-1.488,1.488s-1.488-0.668-1.488-1.488v-5.398   c0-0.82,0.668-1.488,1.488-1.488s1.488,0.668,1.488,1.488V72.112z"/><path d="M68.413,62.726c-2.199,0-3.988,1.789-3.988,3.988v5.398c0,2.199,1.789,3.988,3.988,3.988s3.988-1.789,3.988-3.988v-5.398   C72.401,64.515,70.612,62.726,68.413,62.726z M69.901,72.112c0,0.82-0.668,1.488-1.488,1.488s-1.488-0.668-1.488-1.488v-5.398   c0-0.82,0.668-1.488,1.488-1.488s1.488,0.668,1.488,1.488V72.112z"/></g></svg>