<svg xmlns="http://www.w3.org/2000/svg" xmlns:xlink="http://www.w3.org/1999/xlink" version="1.1" x="0px" y="0px" viewBox="0 0 100 125" enable-background="new 0 0 100 100" width="75px" height="100px" fill="#fff" xml:space="preserve"><g><defs><path id="x" d="M42.131,9.815c-0.797-4.064,0.319-6.249,3.351-6.555C48.494,2.975,50,2.137,50,0.75    c0,1.388,1.505,2.225,4.516,2.511c3.032,0.306,4.149,2.491,3.353,6.555C52.676,8.758,47.327,8.758,42.131,9.815"/></defs><defs><path id="w" d="M57.889,9.819c0.783-4.066,2.631-5.647,5.547-4.742c2.889,0.916,4.594,0.732,5.112-0.551    c-0.519,1.283,0.561,2.646,3.236,4.09c2.687,1.471,2.9,3.927,0.646,7.369C68.023,12.973,63.084,10.879,57.889,9.819"/></defs><defs><path id="v" d="M72.447,15.997c2.241-3.452,4.542-4.188,6.895-2.208c2.327,1.977,3.971,2.476,4.932,1.494    c-0.961,0.981-0.474,2.664,1.459,5.046c1.933,2.412,1.211,4.765-2.158,7.061C80.63,22.882,76.85,19.011,72.447,15.997"/></defs><defs><path id="u" d="M83.586,27.407c3.361-2.31,5.76-2.089,7.197,0.661c1.41,2.739,2.742,3.843,3.996,3.312    c-1.254,0.531-1.433,2.275-0.538,5.234c0.884,2.984-0.661,4.877-4.633,5.677C88.573,36.974,86.527,31.916,83.586,27.407"/></defs><defs><path id="t" d="M89.612,42.312c3.969-0.817,6.104,0.326,6.402,3.431c0.278,3.083,1.097,4.625,2.454,4.625    c-1.357,0-2.176,1.541-2.454,4.623c-0.299,3.106-2.434,4.249-6.402,3.433C90.646,53.105,90.646,47.63,89.612,42.312"/></defs><defs><path id="s" d="M89.608,58.445c3.972,0.8,5.517,2.691,4.633,5.678c-0.895,2.957-0.716,4.701,0.538,5.233    c-1.254-0.532-2.586,0.571-3.996,3.312c-1.438,2.75-3.836,2.971-7.197,0.659C86.527,68.82,88.573,63.762,89.608,58.445"/></defs><defs><path id="r" d="M83.574,73.347c3.369,2.296,4.091,4.649,2.158,7.062c-1.933,2.382-2.42,4.064-1.459,5.046    c-0.961-0.981-2.604-0.485-4.932,1.493c-2.353,1.979-4.653,1.241-6.895-2.207C76.85,81.725,80.63,77.854,83.574,73.347"/></defs><defs><path id="q" d="M72.43,84.751c2.255,3.441,2.041,5.898-0.646,7.369c-2.676,1.442-3.755,2.808-3.236,4.089    c-0.519-1.281-2.224-1.467-5.112-0.551c-2.916,0.906-4.764-0.676-5.547-4.74C63.084,89.857,68.023,87.762,72.43,84.751"/></defs><defs><path id="p" d="M57.869,90.922c0.797,4.062-0.32,6.246-3.353,6.552C51.506,97.761,50,98.598,50,99.986    c0-1.389-1.506-2.226-4.519-2.513c-3.031-0.306-4.148-2.49-3.351-6.552C47.327,91.977,52.676,91.977,57.869,90.922"/></defs><defs><path id="o" d="M42.111,90.918c-0.782,4.064-2.63,5.646-5.546,4.74c-2.889-0.916-4.593-0.73-5.112,0.551    c0.519-1.281-0.559-2.646-3.235-4.089c-2.686-1.471-2.901-3.928-0.646-7.369C31.977,87.762,36.917,89.857,42.111,90.918"/></defs><defs><path id="n" d="M27.554,84.74c-2.242,3.448-4.542,4.186-6.896,2.207c-2.328-1.979-3.971-2.475-4.929-1.493    c0.958-0.981,0.471-2.664-1.46-5.046c-1.932-2.412-1.213-4.766,2.158-7.062C19.37,77.854,23.151,81.725,27.554,84.74"/></defs><defs><path id="m" d="M16.415,73.327c-3.362,2.312-5.761,2.091-7.197-0.659c-1.411-2.74-2.742-3.844-3.996-3.312    c1.253-0.532,1.432-2.276,0.538-5.233c-0.885-2.986,0.66-4.878,4.632-5.678C11.427,63.762,13.474,68.82,16.415,73.327"/></defs><defs><path id="l" d="M10.389,58.424c-3.97,0.816-6.104-0.326-6.403-3.433c-0.279-3.082-1.097-4.623-2.454-4.623    c1.357,0,2.174-1.542,2.454-4.625c0.299-3.104,2.434-4.248,6.403-3.431C9.356,47.63,9.356,53.105,10.389,58.424"/></defs><defs><path id="k" d="M10.392,42.291c-3.972-0.799-5.517-2.692-4.632-5.677c0.894-2.958,0.715-4.703-0.538-5.234    c1.253,0.531,2.584-0.573,3.996-3.312c1.437-2.75,3.835-2.971,7.197-0.661C13.474,31.916,11.427,36.973,10.392,42.291"/></defs><defs><path id="j" d="M16.426,27.389c-3.371-2.296-4.09-4.649-2.158-7.061c1.932-2.382,2.418-4.064,1.46-5.046    c0.958,0.981,2.601,0.483,4.929-1.494c2.355-1.979,4.654-1.243,6.896,2.208C23.151,19.011,19.37,22.882,16.426,27.389"/></defs><defs><path id="i" d="M27.572,15.985c-2.256-3.442-2.04-5.898,0.646-7.369c2.676-1.444,3.754-2.807,3.235-4.09    c0.519,1.283,2.224,1.467,5.112,0.551c2.916-0.905,4.765,0.676,5.546,4.742C36.917,10.879,31.977,12.973,27.572,15.985"/></defs><defs><path id="h" d="M38.542,22.066c-1.996-4.941-0.589-7.902,4.218-8.882C47.586,12.183,50,10.796,50,9.018    c0,1.778,2.415,3.165,7.242,4.167c4.806,0.98,6.211,3.941,4.216,8.882C54.122,18.953,45.877,18.953,38.542,22.066"/></defs><defs><path id="g" d="M61.445,22.061c2.003-4.938,5.041-6.014,9.118-3.228c4.104,2.788,6.771,3.552,7.997,2.296    c-1.227,1.255-0.479,3.985,2.242,8.187c2.722,4.173,1.672,7.284-3.152,9.334C74.613,31.138,68.784,25.169,61.445,22.061"/></defs><defs><path id="f" d="M77.645,38.636c4.827-2.041,7.721-0.602,8.677,4.319c0.978,4.942,2.333,7.413,4.067,7.413    c-1.734,0-3.09,2.471-4.067,7.411c-0.956,4.921-3.85,6.361-8.677,4.319C80.687,54.586,80.687,46.147,77.645,38.636"/></defs><defs><path id="e" d="M77.65,62.084c4.824,2.051,5.874,5.163,3.152,9.335c-2.722,4.201-3.469,6.932-2.242,8.188    c-1.227-1.257-3.893-0.492-7.997,2.294c-4.077,2.788-7.115,1.711-9.118-3.227C68.784,75.565,74.613,69.598,77.65,62.084"/></defs><defs><path id="d" d="M61.458,78.668c1.995,4.941,0.59,7.903-4.216,8.883C52.415,88.552,50,89.94,50,91.717    c0-1.776-2.414-3.165-7.24-4.166c-4.807-0.979-6.214-3.941-4.218-8.883C45.877,81.781,54.122,81.781,61.458,78.668"/></defs><defs><path id="c" d="M38.556,78.675c-2.003,4.938-5.042,6.015-9.119,3.227c-4.104-2.786-6.769-3.551-7.997-2.294    c1.228-1.257,0.481-3.987-2.242-8.188c-2.722-4.172-1.671-7.284,3.153-9.335C25.387,69.598,31.217,75.565,38.556,78.675"/></defs><defs><path id="b" d="M22.356,62.099c-4.827,2.042-7.719,0.602-8.677-4.319c-0.977-4.94-2.333-7.411-4.069-7.411    c1.736,0,3.092-2.471,4.069-7.413c0.958-4.92,3.85-6.359,8.677-4.319C19.313,46.147,19.313,54.586,22.356,62.099"/></defs><defs><path id="a" d="M22.351,38.65c-4.824-2.05-5.875-5.161-3.153-9.334c2.723-4.202,3.47-6.931,2.242-8.187    c1.228,1.255,3.894,0.491,7.997-2.296c4.077-2.786,7.116-1.71,9.119,3.228C31.217,25.169,25.387,31.138,22.351,38.65"/></defs><use xlink:href="#x" overflow="visible"/><use xlink:href="#w" overflow="visible"/><use xlink:href="#v" overflow="visible"/><use xlink:href="#u" overflow="visible"/><use xlink:href="#t" overflow="visible"/><use xlink:href="#s" overflow="visible"/><use xlink:href="#r" overflow="visible"/><use xlink:href="#q" overflow="visible"/><use xlink:href="#p" overflow="visible"/><use xlink:href="#o" overflow="visible"/><use xlink:href="#n" overflow="visible"/><use xlink:href="#m" overflow="visible"/><use xlink:href="#l" overflow="visible"/><use xlink:href="#k" overflow="visible"/><use xlink:href="#j" overflow="visible"/><use xlink:href="#i" overflow="visible"/><use xlink:href="#h" overflow="visible"/><use xlink:href="#g" overflow="visible"/><use xlink:href="#f" overflow="visible"/><use xlink:href="#e" overflow="visible"/><use xlink:href="#d" overflow="visible"/><use xlink:href="#c" overflow="visible"/><use xlink:href="#b" overflow="visible"/><use xlink:href="#a" overflow="visible"/><clipPath id="ax"><use xlink:href="#x" overflow="visible"/></clipPath><clipPath id="aw" clip-path="url(#ax)"><use xlink:href="#w" overflow="visible"/></clipPath><clipPath id="av" clip-path="url(#aw)"><use xlink:href="#v" overflow="visible"/></clipPath><clipPath id="au" clip-path="url(#av)"><use xlink:href="#u" overflow="visible"/></clipPath><clipPath id="at" clip-path="url(#au)"><use xlink:href="#t" overflow="visible"/></clipPath><clipPath id="as" clip-path="url(#at)"><use xlink:href="#s" overflow="visible"/></clipPath><clipPath id="ar" clip-path="url(#as)"><use xlink:href="#r" overflow="visible"/></clipPath><clipPath id="aq" clip-path="url(#ar)"><use xlink:href="#q" overflow="visible"/></clipPath><clipPath id="ap" clip-path="url(#aq)"><use xlink:href="#p" overflow="visible"/></clipPath><clipPath id="ao" clip-path="url(#ap)"><use xlink:href="#o" overflow="visible"/></clipPath><clipPath id="an" clip-path="url(#ao)"><use xlink:href="#n" overflow="visible"/></clipPath><clipPath id="am" clip-path="url(#an)"><use xlink:href="#m" overflow="visible"/></clipPath><clipPath id="al" clip-path="url(#am)"><use xlink:href="#l" overflow="visible"/></clipPath><clipPath id="ak" clip-path="url(#al)"><use xlink:href="#k" overflow="visible"/></clipPath><clipPath id="aj" clip-path="url(#ak)"><use xlink:href="#j" overflow="visible"/></clipPath><clipPath id="ai" clip-path="url(#aj)"><use xlink:href="#i" overflow="visible"/></clipPath><clipPath id="ah" clip-path="url(#ai)"><use xlink:href="#h" overflow="visible"/></clipPath><clipPath id="ag" clip-path="url(#ah)"><use xlink:href="#g" overflow="visible"/></clipPath><clipPath id="af" clip-path="url(#ag)"><use xlink:href="#f" overflow="visible"/></clipPath><clipPath id="ae" clip-path="url(#af)"><use xlink:href="#e" overflow="visible"/></clipPath><clipPath id="ad" clip-path="url(#ae)"><use xlink:href="#d" overflow="visible"/></clipPath><clipPath id="ac" clip-path="url(#ad)"><use xlink:href="#c" overflow="visible"/></clipPath><clipPath id="ab" clip-path="url(#ac)"><use xlink:href="#b" overflow="visible"/></clipPath><clipPath id="aa" clip-path="url(#ab)"><use xlink:href="#a" overflow="visible"/></clipPath><ellipse clip-path="url(#aa)" cx="50" cy="50.368" rx="70.697" ry="72.375"/></g><g><defs><ellipse id="z" cx="50" cy="50.368" rx="0.359" ry="0.368"/></defs><clipPath id="y"><use xlink:href="#z" overflow="visible"/></clipPath><ellipse clip-path="url(#y)" fill="#000000" cx="50" cy="50.368" rx="70.697" ry="72.375"/></g><g><polygon points="49.901,20.249 44.405,27.716 55.398,27.716  "/><polygon points="33.691,27.716 38.582,35.626 44.405,27.716  "/><polygon points="55.398,27.716 61.221,35.626 66.113,27.716  "/><polygon points="49.901,27.716 45.792,35.626 54.009,35.626  "/><polygon points="30.623,35.626 33.915,41.966 38.582,35.626  "/><polygon points="45.792,35.626 38.582,35.626 42.5,41.966  "/><polygon points="49.901,35.626 46.52,41.966 53.28,41.966  "/><polygon points="54.009,35.626 57.304,41.966 61.221,35.626  "/><polygon points="69.18,35.626 61.221,35.626 65.887,41.966  "/><polygon points="21.75,41.966 27.833,50.23 33.915,41.966  "/><polygon points="46.52,41.966 42.5,41.966 44.658,45.458  "/><polygon points="49.901,41.966 48.337,45.458 51.466,45.458  "/><polygon points="53.28,41.966 55.144,45.458 57.304,41.966  "/><polygon points="71.97,50.23 78.054,41.966 65.887,41.966  "/><polygon points="46.792,48.909 48.337,45.458 44.658,45.458  "/><polygon points="53.011,48.909 55.144,45.458 51.466,45.458  "/><polygon points="42.817,48.909 45.292,52.259 46.792,48.909  "/><polygon points="53.011,48.909 54.51,52.259 56.985,48.909  "/><polygon points="46.792,48.909 49.901,53.94 53.011,48.909  "/><polygon points="40.686,45.458 42.513,49.48 44.658,45.458  "/><polygon points="57.289,49.48 59.117,45.458 55.144,45.458  "/><polygon points="42.513,49.48 40.134,53.94 44.54,53.94  "/><polygon points="57.289,49.48 55.263,53.94 59.668,53.94  "/><polygon points="45.292,52.259 44.54,53.94 46.536,53.94  "/><polygon points="54.51,52.259 53.267,53.94 55.263,53.94  "/><polygon points="33.915,41.966 38.208,50.23 42.5,41.966  "/><polygon points="57.304,41.966 61.595,50.23 65.887,41.966  "/><polygon points="38.208,50.23 33.915,58.494 42.5,58.494  "/><polygon points="61.595,50.23 57.304,58.494 65.887,58.494  "/><polygon points="44.54,53.94 42.5,58.494 46.607,58.494  "/><polygon points="46.536,53.94 49.901,58.494 53.267,53.94  "/><polygon points="55.263,53.94 53.196,58.494 57.304,58.494  "/><polygon points="27.833,50.23 21.75,58.494 33.915,58.494  "/><polygon points="71.97,50.23 65.887,58.494 78.054,58.494  "/><polygon points="33.915,58.494 30.149,65.745 39.252,65.745  "/><polygon points="42.5,58.494 39.252,65.745 46.266,65.745  "/><polygon points="46.607,58.494 49.901,65.745 53.196,58.494  "/><polygon points="57.304,58.494 53.537,65.745 60.549,65.745  "/><polygon points="65.887,58.494 60.549,65.745 69.652,65.745  "/><polygon points="39.252,65.745 36.118,72.745 44.405,72.745  "/><polygon points="46.266,65.745 49.901,72.745 53.537,65.745  "/><polygon points="60.549,65.745 55.398,72.745 63.684,72.745  "/><polygon points="44.405,72.745 49.901,80.212 55.398,72.745  "/></g><ellipse fill="none" cx="50" cy="50" rx="50.383" ry="51.58"/><path fill="#000000" stroke="#92B7B8" stroke-width="3" stroke-miterlimit="10" d="M123.849-151.382"/><ellipse fill="#000000" cx="50" cy="50.368" rx="0.649" ry="0.664"/></svg>