<svg xmlns="http://www.w3.org/2000/svg" data-name="Layer 3" viewBox="0 0 64 80" x="0px" y="0px"><path d="M58,15H47.067L45,13.026V6a1,1,0,0,0-1-1H40a1,1,0,0,0-1,1V7.3L32.69,1.276a1,1,0,0,0-1.381,0L16.932,15H6a5.006,5.006,0,0,0-5,5V48a5.006,5.006,0,0,0,5,5H26v2a5,5,0,0,0-5,5v1a2,2,0,0,0,2,2H41a2,2,0,0,0,2-2V60a5,5,0,0,0-5-5V53H58a5.006,5.006,0,0,0,5-5V20A5.006,5.006,0,0,0,58,15Zm0,2a3,3,0,0,1,3,3V43H50V42a1,1,0,0,0-1-1H47V23.427l.309.3A1,1,0,0,0,48,24h6a1,1,0,0,0,.69-1.723L49.162,17ZM19,21.518,32,9.109,45,21.518V41H38V33a6,6,0,1,0-12,0v8H19ZM33,41V29.141A4,4,0,0,1,36,33v8ZM31,29.142V41H28V33A4,4,0,0,1,31,29.142ZM48,43v2H16V43ZM41,7h2v4.117L41,9.208ZM32,3.382,51.5,22H48.4L32.69,7a1,1,0,0,0-1.381,0L15.6,22H12.5ZM6,17h8.837L9.309,22.276A1,1,0,0,0,10,24h6a1,1,0,0,0,.69-.276l.31-.3V41H15a1,1,0,0,0-1,1v1H3V20A3,3,0,0,1,6,17ZM41,60v1H23V60a3,3,0,0,1,3-3H38A3,3,0,0,1,41,60Zm-5-5H28V53h8Zm22-4H6a3,3,0,0,1-3-3V45H14v1a1,1,0,0,0,1,1H49a1,1,0,0,0,1-1V45H61v3A3,3,0,0,1,58,51Z"/><path d="M32,18a3,3,0,1,0-3-3A3,3,0,0,0,32,18Zm0-4a1,1,0,1,1-1,1A1,1,0,0,1,32,14Z"/><path d="M34,20v4a1,1,0,0,0,1,1h4a1,1,0,0,0,1-1V20a1,1,0,0,0-1-1H35A1,1,0,0,0,34,20Zm2,1h2v2H36Z"/><path d="M29,25a1,1,0,0,0,1-1V20a1,1,0,0,0-1-1H25a1,1,0,0,0-1,1v4a1,1,0,0,0,1,1Zm-3-4h2v2H26Z"/></svg>